<svg id="ic_rate_full" xmlns="http://www.w3.org/2000/svg" width="27" height="27" viewBox="0 0 27 27">
  <g id="ic_rate_full-2" data-name="ic_rate_full">
    <path id="Path" d="M26.414,12.236a2.07,2.07,0,0,0,.49-2.072A1.949,1.949,0,0,0,25.34,8.789L18.8,7.8a.858.858,0,0,1-.643-.488L15.237,1.126a1.9,1.9,0,0,0-3.473,0L8.841,7.31A.858.858,0,0,1,8.2,7.8L1.66,8.789A1.949,1.949,0,0,0,.1,10.165a2.07,2.07,0,0,0,.49,2.072l4.73,4.812a.918.918,0,0,1,.247.79l-1.116,6.8a2.041,2.041,0,0,0,.422,1.639,1.9,1.9,0,0,0,2.387.492L13.1,23.556a.843.843,0,0,1,.8,0l5.847,3.209a1.852,1.852,0,0,0,.9.235,1.91,1.91,0,0,0,1.486-.727,2.04,2.04,0,0,0,.422-1.639l-1.116-6.8a.917.917,0,0,1,.247-.79Z" transform="translate(0 0)" fill="#29519c"/>
  </g>
</svg>
